<?xml version="1.0" encoding="UTF-8"?>
<svg id="Layer_2" data-name="Layer 2" xmlns="http://www.w3.org/2000/svg" viewBox="0 0 384.04 267.64">
  <defs>
    <style>
      .cls-1 {
        fill: #8a2432;
      }

      .cls-2 {
        fill: #fff;
      }

      .cls-3 {
        fill: #e0d0a6;
      }

      .cls-4 {
        fill: #0a2240;
      }
    </style>
  </defs>
  <g id="Layer_1-2" data-name="Layer 1">
    <g>
      <path class="cls-2" d="M192.02,267.64c30.55,0,60.2-5.99,88.15-17.81,11.72-4.96,23.07-10.93,33.74-17.76,9.02-5.77,12.37-17.43,7.8-27.12l-7.02-14.89c35.31-6.35,69.35-4.76,69.35-4.76l-49.77-29.04,25.68-32.48s-35.12.94-70.55,13.49l.02-3.36c57.71-17.85,48.55-55.89,48.55-55.89,17.37-31.3-3.39-54.82-15.3-64.91.21,3.56.14,7.57-.52,11.69-3.92-1.12-16.15-2.93-33.28,10.57l-1.37-1.27C285.99,32.71,249.87,0,192.02,0c-57.85,0-93.97,32.71-95.48,34.1l-1.37,1.27c-17.13-13.5-29.36-11.69-33.28-10.57-.66-4.12-.73-8.14-.52-11.69-11.91,10.08-32.67,33.6-15.3,64.91,0,0-9.16,38.05,48.55,55.89l.02,3.36c-35.43-12.55-70.55-13.49-70.55-13.49l25.68,32.48L0,185.3s34.04-1.59,69.35,4.76l-7.02,14.89c-4.57,9.69-1.22,21.35,7.8,27.12,10.67,6.83,22.03,12.8,33.74,17.76,27.94,11.82,57.6,17.81,88.15,17.81Z"/>
      <path class="cls-2" d="M83.86,104.25l10.75,1.85v4.78c-7.92-2.87-14.17-5.87-19.11-8.76,2.7.92,5.49,1.63,8.36,2.13ZM300.2,104.25c2.87-.49,5.66-1.21,8.36-2.13-4.95,2.89-11.21,5.89-19.14,8.76v-4.78l10.78-1.85Z"/>
      <path class="cls-4" d="M306,185.71c27.91-6.18,55.19-6.36,55.19-6.36-16.84-9.36-35.72-21.74-35.72-21.74l21.16-26.76s-29.47,2.56-63.71,15.01c.32-3.53.49-7.18.49-10.97v-5.42c50.47-14.43,49.14-43.56,49.14-43.56,0,0-3.72,19.24-49.14,33.33v-19.83c6.79-9.03,6.56-19.12,0-25.66v-16.33c2.67-.91,5.17-2.31,7.34-4.34,12.9-12.07,18.57-12.11,18.57-12.11-9.07,17.69-3.21,30.61,5.06,27.23,8.51-3.48,12.21-15.68,12.21-15.68,7.59,18.12-12.35,35.45-27.43,45.83,19.98-3.44,36.55-19.52,39-39.49,1.49-12.12-2.51-23.26-10.11-31.3-2.07,16.87-7.36,30.05-12.26,30.05-4.73,0-1.87-11.86,5.27-26.86,0,0-11.88-4.93-30.85,11.28-2.38,2.04-4.63,3.67-6.8,4.8v-8.32S248.18,6,192.01,6s-91.4,32.51-91.4,32.51v8.31c-2.17-1.12-4.4-2.75-6.78-4.78-18.97-16.21-30.85-11.28-30.85-11.28,7.14,14.99,10,26.85,5.27,26.86-4.91,0-10.2-13.18-12.26-30.05-7.6,8.03-11.6,19.18-10.11,31.3,2.46,19.97,19.03,36.05,39,39.49-15.08-10.38-35.01-27.7-27.43-45.83,0,0,3.7,12.21,12.21,15.68,8.27,3.38,14.13-9.54,5.06-27.23,0,0,5.67.05,18.57,12.11,2.17,2.02,4.66,3.42,7.32,4.33v16.35c-6.53,6.54-6.76,16.6,0,25.61v19.85c-45.41-14.09-49.12-33.33-49.12-33.33,0,0-1.32,29.13,49.12,43.55v5.43c0,3.78.17,7.43.49,10.96-34.23-12.44-63.68-15-63.68-15l21.16,26.76s-18.88,12.38-35.72,21.74c0,0,27.28.18,55.18,6.36l-10.28,21.8c-3.29,6.97-.88,15.36,5.6,19.51,10.39,6.64,21.44,12.46,32.85,17.28,27.2,11.51,56.07,17.34,85.81,17.34s58.61-5.83,85.81-17.34c11.4-4.82,22.44-10.63,32.82-17.27,6.5-4.16,8.92-12.56,5.62-19.55l-10.27-21.77Z"/>
      <g>
        <path class="cls-1" d="M148.78,85.63c2.07-4.62,5.04-7.52,8.35-7.52,3.55,0,6.71,3.34,8.78,8.56,2.07-5.22,5.23-8.56,8.78-8.56s6.71,3.34,8.78,8.56c2.07-5.22,5.23-8.56,8.78-8.56s6.71,3.34,8.78,8.56c2.07-5.22,5.23-8.56,8.78-8.56s6.71,3.34,8.78,8.56c2.07-5.22,5.23-8.56,8.78-8.56,3.31,0,6.28,2.9,8.35,7.52l3.8-12.97h-7.14c2.25-7.45,3.45-15.99-.25-21.35-1.4-2.03-4.15-4.46-9.26-4.49-6.67-.02-13.64,4.06-19.2,10.53l3.28-15.62-14.71-12.24-14.71,12.24,3.28,15.61c-5.57-6.49-12.54-10.57-19.2-10.53-5.11.03-7.85,2.45-9.26,4.49-3.7,5.36-2.51,13.9-.25,21.35h-7.14l3.8,12.97ZM222.81,53.02h.05c2.64.01,3.66,1.04,4.19,1.81,2.06,2.98,1.61,9.55-1.15,17.83h-24.22c4.39-11.01,13.41-19.64,21.13-19.64ZM192.26,37.55l7.88,6.55-5.75,27.36h-4.25l-5.75-27.36,7.88-6.55ZM157.47,54.83c.53-.77,1.55-1.8,4.19-1.81h.05c7.72,0,16.74,8.63,21.13,19.64h-24.22c-2.76-8.28-3.21-14.85-1.15-17.83Z"/>
        <path class="cls-1" d="M143.07,90.33c1.33,5.02,6.02,8.54,11.39,8.54h75.59c5.38,0,10.07-3.51,11.39-8.54h-98.38Z"/>
      </g>
      <g>
        <g>
          <path class="cls-1" d="M115.46,45.59c20.34-15.66,48.85-24.99,76.56-24.99s56.61,9.46,77.04,25.35v12.43c1.74.25,3.51.4,5.28.41v-15.39s-31.62-28.09-82.09-28.09-82.09,27.7-82.09,27.7v15.76c1.78-.03,3.55-.19,5.28-.46v-12.73Z"/>
          <path class="cls-1" d="M115.46,76.11l-5.28,2.42v29.6c1.63,1.07,3.38,2.1,5.28,3.06v-35.08Z"/>
          <path class="cls-1" d="M274.35,78.04l-5.28-3.04v35.95c1.91-.98,3.67-2.02,5.28-3.12v-29.79Z"/>
          <path class="cls-1" d="M297.02,187.42c-20.8,14.96-44.92,25.6-71.04,30.59,52.63-37.39,75.21-43.78,103.95-45.37l-18.38-12.27,14.73-18.82c-14.78,2.57-30.12,7.22-45.56,13.24-1.82,6.81-6.97,20.65-20.17,29.81,9.09-14.19,13.55-30.6,13.55-49.72v-2.98c-1.82.49-3.59.99-5.31,1.48-.85,40.78-23.97,63.67-51.86,79.04.06-.29.13-.58.18-.88l2.09-14.03c1.08-7.1,4.37-14.3,9.76-21.38,7.19-9.45,9.25-18.1,6.11-25.69-.46-1.13-1.03-2.17-1.67-3.15,2.15-.13,5.31.23,10.01,1.6,9.26,2.71,18.63-4.54,18.03-11.52,0,0-19.24,1.67-33.25,4.81,3.04,8.03,4.28,19.17-4.56,29.9-5.79,7.03-9.67,15.43-11.05,24.43l-2.09,13.71c-.94,6.14-6.22,10.67-12.42,10.67h-12.06c-6.21,0-11.49-4.53-12.42-10.67l-2.09-13.71c-1.37-9-5.26-17.4-11.05-24.43-8.83-10.72-7.6-21.85-4.56-29.88-14.04-3.19-33.31-4.83-33.31-4.83-.6,6.98,8.77,14.22,18.03,11.52,5.01-1.46,8.29-1.78,10.43-1.57-.6.93-1.15,1.92-1.6,2.98-3.2,7.57-1.32,16.22,5.59,25.71,5.66,7.78,8.79,14.61,9.84,21.47l2.1,14.08c.05.3.12.58.17.87-27.87-15.35-50.99-38.21-51.89-78.92-1.72-.49-3.5-.99-5.31-1.48v2.85c0,19.11,4.45,35.5,13.53,49.69-13.17-9.17-18.31-22.99-20.13-29.79-15.44-6.02-30.78-10.67-45.56-13.24l14.73,18.82-18.38,12.27c28.74,1.58,51.33,7.98,103.96,45.37-26.13-4.99-50.25-15.62-71.06-30.59l-11.24,23.84c-1.4,2.98-.39,6.55,2.38,8.32,9.97,6.38,20.49,11.92,31.5,16.57,26.1,11.04,53.82,16.64,82.36,16.64s56.26-5.6,82.36-16.64c11.01-4.66,21.53-10.2,31.5-16.57,2.77-1.77,3.79-5.34,2.38-8.32l-11.24-23.84Z"/>
        </g>
        <path class="cls-1" d="M167.95,161.12c0-1.12.55-2.08,1.33-2.52-.78-1.95-1.61-3.54-2.46-4.84-1.77,1.18-2.96,3.38-2.96,5.91,0,3.76,2.64,6.81,5.9,6.81.96,0,1.87-.27,2.68-.74-.38-.66-.76-1.39-1.14-2.18-.32.21-.68.33-1.07.33-1.26,0-2.28-1.24-2.28-2.78Z"/>
        <path class="cls-1" d="M217.21,153.76c-.84,1.29-1.68,2.88-2.46,4.84.78.44,1.33,1.4,1.33,2.52,0,1.54-1.02,2.78-2.28,2.78-.39,0-.75-.13-1.07-.33-.38.79-.76,1.52-1.14,2.18.8.47,1.71.74,2.68.74,3.26,0,5.9-3.05,5.9-6.81,0-2.53-1.19-4.73-2.96-5.91Z"/>
      </g>
      <g>
        <g>
          <path class="cls-2" d="M299.16,98.36c15.08-10.38,35.04-27.71,27.45-45.84,0,0-3.7,12.21-12.21,15.68-8.27,3.38-14.13-9.54-5.06-27.23,0,0-5.67.05-18.57,12.11-12.9,12.07-37.37,2.04-40.39-2.83-1.41,4.39,7.84,11.77,25.52,18.66,20.95,8.16,16.5,36.85-19.3,46.85-.51.14-1.02.28-1.53.43,5.01-6.47,5.55-13.87,3.53-19.59-2.67-7.54-1.21-15.6-1.21-15.6,0,0-10.11,5.18-7.83,20.49.98,6.56-2.17,11.42-7.11,15.12-2.42-3.24-9.04-9.58-23.92-9.58,0,0,11.1,5.96,13.97,14.96-2.23.91-4.52,1.71-6.76,2.44-1.03.29-2.05.58-3.04.86-3.79-3.92-8.51-7.12-13.73-9.28-3.59-1.48-7.73-.72-10.53,1.96l-3.53,3.38c-1.51,1.45-3.88,1.45-5.39,0l-3.64-3.48c-2.77-2.65-6.89-3.43-10.48-1.98-5.34,2.16-10.17,5.41-14.03,9.4-1-.28-2.01-.57-3.04-.86-2.24-.72-4.53-1.53-6.76-2.44,2.87-9,13.97-14.96,13.97-14.96-14.88,0-21.5,6.34-23.92,9.58-4.94-3.71-8.08-8.56-7.11-15.12,2.28-15.31-7.83-20.49-7.83-20.49,0,0,1.46,8.05-1.21,15.6-2.02,5.72-1.48,13.11,3.53,19.59-.51-.14-1.02-.28-1.53-.43-35.8-10-40.24-38.69-19.3-46.85,17.68-6.89,26.94-14.27,25.52-18.66-3.02,4.87-27.49,14.89-40.39,2.83-12.9-12.07-18.57-12.11-18.57-12.11,9.07,17.69,3.21,30.61-5.06,27.23-8.51-3.48-12.21-15.68-12.21-15.68-7.59,18.13,12.37,35.46,27.45,45.84-19.54-1.54-33.41-12.46-33.41-12.46,0,0,5.1,26.48,76.65,40.06,45.21,8.58,49.83,19.75,49.83,19.75l-1.86-8.73c-.9-4.22-4.23-8.08-8.26-9.74,2.85-2.43,6.15-4.44,9.73-5.89,1.45-.59,3.11-.28,4.21.78l3.64,3.48c3.79,3.62,9.72,3.62,13.51,0l3.53-3.38c1.12-1.07,2.77-1.37,4.22-.77,3.48,1.44,6.7,3.41,9.48,5.79-4.03,1.67-7.36,5.52-8.26,9.74l-1.86,8.73s4.62-11.18,49.83-19.75c71.55-13.57,76.65-40.06,76.65-40.06,0,0-13.87,10.92-33.41,12.46Z"/>
          <g>
            <path class="cls-2" d="M95.16,203.24l2.64,1.46.08,9.54,4.02-7.28,2.78,1.53-7.6,13.78-2.48-1.37v-10.01s-4.23,7.68-4.23,7.68l-2.8-1.54,7.6-13.78Z"/>
            <path class="cls-2" d="M111.01,211.6l8.35,3.75-1.27,2.83-5.25-2.36-1.32,2.93,4.12,1.85-1.27,2.83-4.12-1.85-1.32,2.93,5.27,2.37-1.27,2.83-8.37-3.76,6.44-14.36Z"/>
            <path class="cls-2" d="M124.44,217.57l3.43,1.14-1.47,10.1,5.4-8.79,2.75.92-.96,10.27,4.88-8.97,3.33,1.11-8.35,13.81-3.14-1.05.67-9.26-5,7.81-3.14-1.05,1.59-16.06Z"/>
            <path class="cls-2" d="M147.57,224.7l8.84,1.99-.68,3.03-5.53-1.24-.73,3.25,4.36.98-.68,3-4.36-.98-1.37,6.08-3.31-.74,3.45-15.35Z"/>
            <path class="cls-2" d="M160.4,241.25l1.53-11.41,2.38-1.81,6.53.88,1.81,2.38-1.53,11.41-2.38,1.81-6.53-.88-1.81-2.38ZM167.88,241.26l1.27-9.45-3.99-.54-1.27,9.45,3.99.54Z"/>
            <path class="cls-2" d="M179.2,243.38l.53-13.62,3.39.13-.49,12.63,3.75.15.49-12.63,3.39.13-.53,13.62-2.19,2.03-6.31-.25-2.03-2.19Z"/>
            <path class="cls-2" d="M197.19,230.13l3.01-.17,5.13,8.04-.46-8.3,3.16-.18.87,15.71-2.83.16-5.31-8.48.49,8.75-3.19.18-.87-15.71Z"/>
            <path class="cls-2" d="M214.97,228.79l8.51-1.3,2.41,1.77,1.73,11.38-1.77,2.41-8.51,1.3-2.37-15.56ZM224.12,240.18l-1.44-9.43-3.89.59,1.44,9.43,3.89-.59Z"/>
            <path class="cls-2" d="M232.38,225.77l3.3-.8,2.98,12.23,5.33-1.3.75,3.06-8.63,2.1-3.73-15.29Z"/>
            <path class="cls-2" d="M250.5,220.76l3.2-1.08,9.62,13.36-3.49,1.18-1.37-2.01-4.26,1.44.13,2.42-3.37,1.14-.46-16.46ZM256.7,229.63l-3-4.45.31,5.35,2.68-.91Z"/>
            <path class="cls-2" d="M263.7,215.96l2.76-1.22,7.64,5.72-3.37-7.61,2.9-1.28,6.37,14.39-2.59,1.15-7.97-6.06,3.55,8.02-2.92,1.29-6.37-14.39Z"/>
            <path class="cls-2" d="M279.93,208.43l7.54-4.16,2.87.83,5.56,10.08-.83,2.87-7.54,4.16-7.6-13.78ZM292.45,215.96l-4.6-8.35-3.45,1.9,4.6,8.35,3.45-1.9Z"/>
          </g>
          <path class="cls-2" d="M202.67,156.26c-.4.88-.82,1.69-1.27,2.46-1.11,1.88-3.98,1.27-4.21-.9-.97-9.11-2.92-20.45-5.17-20.45s-4.2,11.35-5.17,20.45c-.23,2.17-3.11,2.79-4.21.9-.45-.76-.87-1.58-1.27-2.46-6.22-13.81-16.38-10.03-16.38-10.03,0,0,6.39-.19,10.65,11.73,4.26,11.92,10.16,10.15,10.16,10.15l-.4,6.2c-.16,1.45-.63,2.85-1.35,4.1,1.63.42,3.37,1.05,5,1.98,1.84,1.05,4.12,1.05,5.96,0,1.64-.94,3.41-1.57,5.05-1.99-.74-1.24-1.22-2.62-1.39-4.08l-.4-6.18s-.01-.01-.01-.01c0,0,5.9,1.78,10.16-10.15,4.26-11.92,10.65-11.73,10.65-11.73,0,0-10.16-3.78-16.38,10.03Z"/>
        </g>
        <g>
          <ellipse class="cls-2" cx="170.24" cy="161.12" rx="2.28" ry="2.78"/>
          <ellipse class="cls-2" cx="213.8" cy="161.12" rx="2.28" ry="2.78"/>
        </g>
      </g>
      <g>
        <g>
          <g>
            <path class="cls-3" d="M57.45,52.52c-7.59,18.13,12.37,35.46,27.45,45.84-29.12-30.4-27.45-45.84-27.45-45.84Z"/>
            <path class="cls-3" d="M129.9,108.01c-2.45-3.9-3.9-7.48-4.73-10.52-2.13,7.14-.35,16.55,8.75,23.6-8.05-2.17-17.2-4.49-27.48-7.28-41.14-11.17-54.95-27.9-54.95-27.9,0,0,5.1,26.48,76.65,40.06,43.79,8.31,49.5,19.05,49.81,19.72-3.87-8.9-11.89-14.14-24.44-18.67-9.69-3.5-18.09-10.2-23.62-19Z"/>
            <path class="cls-3" d="M117.61,112.21c-24.55-11.1-27.88-32.38-13.39-41.35-.96.36-1.97.71-3.02,1.07-20.37,6.79-16.72,30.7,16.41,40.28Z"/>
          </g>
          <g>
            <path class="cls-3" d="M326.61,52.52c7.59,18.13-12.37,35.46-27.45,45.84,29.12-30.4,27.45-45.84,27.45-45.84Z"/>
            <path class="cls-3" d="M254.15,108.01c2.45-3.9,3.9-7.48,4.73-10.52,2.13,7.14.35,16.55-8.75,23.6,8.05-2.17,17.2-4.49,27.48-7.28,41.14-11.17,54.95-27.9,54.95-27.9,0,0-5.1,26.48-76.65,40.06-43.79,8.31-49.5,19.05-49.81,19.72,3.87-8.9,11.89-14.14,24.44-18.67,9.69-3.5,18.09-10.2,23.62-19Z"/>
            <path class="cls-3" d="M266.45,112.21c24.55-11.1,27.88-32.38,13.39-41.35.96.36,1.97.71,3.02,1.07,20.37,6.79,16.72,30.7-16.41,40.28Z"/>
          </g>
        </g>
        <g>
          <path class="cls-3" d="M185.71,207.49c-1.25,0-2.26,1.01-2.26,2.26h0c0,1.77,3.84,3.2,8.58,3.2s8.58-1.43,8.58-3.2h0c0-1.25-1.01-2.26-2.26-2.26h-12.63Z"/>
          <path class="cls-3" d="M204.76,183.31c0-.21-.04-.42-.14-.6-.57-1.02-1.39-.86-2.22-1.55-.95-.79-1.74-1.73-2.35-2.77-1.64.42-3.4,1.05-5.05,1.99-1.85,1.06-4.11,1.06-5.96,0-1.64-.93-3.39-1.56-5.03-1.99-.61,1.03-1.4,1.97-2.34,2.75-.84.7-1.67.55-2.25,1.59-.1.18-.14.39-.14.6l-.04,11.85c.31,3.83,3.51,6.77,7.35,6.77h2.81c-4.08-2.47-5.03-5.93-5.03-5.93,6.05-3.97.26-7.15-2.1-8.19-.66-.29-1.04-1.02-.85-1.77s.88-1.16,1.61-1.12c1.28.06,3.19.29,5.42,1.01,2.35.75,4.87.75,7.21,0s4.15-.95,5.42-1.01c.73-.04,1.44.41,1.61,1.12.19.75-.19,1.48-.85,1.77-2.36,1.04-8.16,4.22-2.1,8.19,0,0-.95,3.46-5.03,5.93h2.71c3.84,0,7.04-2.95,7.35-6.77l-.04-11.88Z"/>
        </g>
      </g>
    </g>
  </g>
</svg>